<svg xmlns="http://www.w3.org/2000/svg" xmlns:xlink="http://www.w3.org/1999/xlink" width="650" height="120" aria-labelledby="87qhsz3360uj6xpqxk4hl975pio2u7p l1bc0610ek2gqye5ebsbttyeav9mn9q" class="hero--logo-image" role="img" version="1.1" viewBox="0 0 650 120"><title id="87qhsz3360uj6xpqxk4hl975pio2u7p">Hacktoberfest 2018</title><desc id="l1bc0610ek2gqye5ebsbttyeav9mn9q">Created with Sketch.</desc><g id="Landing-Page" fill="#000" fill-rule="evenodd" stroke="none" stroke-width="1"><g id="hacktoberfest-landing_v7" fill="#000" transform="translate(-475.000000, -323.000000)"><g id="hero-copy---coming-soon" transform="translate(475.000000, 278.000000)"><g id="Group" transform="translate(0.000000, 45.000000)"><polygon id="Fill-1" points="241.322 49.168 251.859 49.168 251.859 112.385 258.882 119.408 265.907 112.385 276.442 101.848 272.93 98.336 265.907 105.36 265.907 49.167 279.954 35.12 265.907 35.12 265.907 24.585"/><polygon id="Fill-2" points="495.251 24.584 495.251 38.632 484.715 49.168 495.251 49.168 495.251 112.385 502.275 119.408 509.299 112.385 509.299 49.168 523.347 35.121 509.299 35.121 509.299 24.584 509.299 10.535"/><polygon id="Fill-3" points="519.835 0 509.299 10.536 519.835 21.071 530.37 10.536"/><polygon id="Fill-4" points="331.43 17.559 338.454 24.584 338.454 105.36 352.502 119.409 363.039 108.872 352.502 98.336 352.502 45.656 352.502 35.12 352.502 17.559 341.966 7.024"/><polygon id="Fill-5" points="352.503 45.656 363.038 56.192 363.038 108.872 377.086 94.824 377.086 49.168 363.038 35.12"/><polygon id="Fill-6" points="44.282 12.395 51.661 19.774 51.661 38.134 33.302 56.493 33.302 30.845 33.302 12.395 22.231 1.324 22.186 1.37 22.141 1.324 0 23.465 3.781 27.247 14.851 16.176 18.542 19.866 18.542 112.027 25.922 119.409 33.302 112.027 33.302 72.396 51.661 54.037 51.661 86.197 51.661 104.648 66.421 119.409 73.803 112.027 77.493 108.338 84.872 100.957 81.183 97.267 73.803 104.648 66.421 97.267 66.421 86.197 66.421 30.845 66.421 16.085 66.421 12.395 55.351 1.324"/><polygon id="Fill-7" points="611.067 49.168 621.603 49.168 621.603 112.385 628.627 119.408 635.651 112.385 646.187 101.848 642.675 98.336 635.651 105.36 635.651 49.167 649.699 35.12 635.651 35.12 635.651 24.585"/><polygon id="Fill-8" points="285.794 59.704 285.794 105.36 299.842 119.409 310.378 108.872 299.842 98.336 299.842 45.656"/><polygon id="Fill-9" points="299.842 45.656 310.379 56.192 310.379 108.872 324.427 94.824 324.427 49.168 310.379 35.12"/><path id="Fill-10" d="M403.978466,45.6563008 L389.930346,59.7035188 L389.930346,105.360361 L403.978466,119.408481 L411.002526,112.385323 L414.514105,108.87194 L425.050647,98.3363008 L421.538165,94.8238195 L411.002526,105.360361 L403.978466,98.3363008 L403.978466,73.578406 L428.475609,49.0812632 L414.514105,35.1206617 L403.978466,45.6563008 Z M403.978466,45.6563008 L414.427489,56.1053233 L403.978466,66.5543459 L403.978466,45.6563008 Z"/><polygon id="Fill-11" points="93.791 59.704 93.791 105.36 107.839 119.409 118.375 108.872 107.839 98.336 107.839 45.656"/><polygon id="Fill-12" points="107.839 45.656 118.375 56.192 118.375 108.872 128.911 119.408 139.447 108.872 132.423 101.848 132.423 49.168 118.375 35.121"/><polygon id="Fill-13" points="148.887 59.704 148.887 105.36 162.934 119.409 169.958 112.385 173.47 108.872 184.006 98.336 180.494 94.824 169.958 105.36 162.934 98.336 162.934 45.656"/><polygon id="Fill-14" points="162.934 45.557 173.47 56.093 184.005 45.557 173.47 35.021"/><polygon id="Fill-15" points="220.27 35.12 209.734 45.657 220.27 56.191 230.807 45.657"/><polygon id="Fill-16" points="209.734 66.728 216.758 73.753 216.758 112.384 223.782 119.408 230.807 112.384 230.807 66.728 220.271 56.192"/><polygon id="Fill-17" points="188.662 17.559 195.686 24.584 195.686 112.385 202.71 119.409 209.734 112.385 209.734 66.729 209.734 45.656 209.734 35.12 209.734 17.559 199.198 7.024"/><path id="Fill-18" d="M542.030887,45.6563008 L527.982767,59.7035188 L527.982767,105.360361 L542.030887,119.408481 L549.054947,112.385323 L552.567429,108.87194 L563.103068,98.3363008 L559.591489,94.8238195 L549.054947,105.360361 L542.030887,98.3363008 L542.030887,73.578406 L566.52803,49.0812632 L552.567429,35.1206617 L542.030887,45.6563008 Z M542.030887,45.6563008 L552.47991,56.1053233 L542.030887,66.5543459 L542.030887,45.6563008 Z"/><polygon id="Fill-19" points="456.639 45.656 467.174 56.192 477.711 45.656 467.174 35.12"/><polygon id="Fill-20" points="435.566 45.656 442.59 52.679 442.59 63.216 442.59 73.753 442.59 112.385 449.615 119.408 456.639 112.385 456.639 73.753 456.639 63.216 456.639 45.656 446.102 35.121"/><polygon id="Fill-21" points="575.947 108.872 586.483 119.409 597.018 108.872 586.483 98.336"/><polygon id="Fill-22" points="607.555 45.656 597.018 35.12 586.483 45.656 597.018 56.192"/><polygon id="Fill-23" points="575.947 56.192 575.947 70.24 597.018 91.312 597.018 108.873 607.555 98.336 607.555 80.776 605.799 79.021 597.018 70.24 586.483 59.704 586.483 45.656"/></g></g></g></g></svg>